<svg width="18" height="17" viewBox="0 0 18 17" fill="none" xmlns="http://www.w3.org/2000/svg">
<path d="M17.0033 13.3166L13.062 9.7896C12.6751 9.4432 12.0778 9.46133 11.7133 9.83063L9.39303 12.1791C8.83455 12.0741 7.71176 11.7296 6.55601 10.595C5.40026 9.45656 5.05024 8.34866 4.94649 7.80283L7.33071 5.51832C7.70691 5.15952 7.72437 4.57265 7.37241 4.19094L3.78977 0.312825C3.43781 -0.0698344 2.83957 -0.106096 2.44107 0.229804L0.337063 2.00569C0.169324 2.17173 0.0694559 2.39121 0.0558817 2.625C0.0413378 2.86357 -0.235965 8.5147 4.21639 12.8986C8.10057 16.7204 12.966 17 14.3059 17C14.5018 17 14.622 16.9943 14.654 16.9924C14.8916 16.979 15.1146 16.8807 15.2823 16.7147L17.0858 14.643C17.429 14.2508 17.3912 13.6629 17.0033 13.3166Z" fill="white"/>
</svg>
