<svg width="17" height="17" viewBox="0 0 17 17" fill="none" xmlns="http://www.w3.org/2000/svg">
<path d="M16.6878 13.3166L12.8086 9.7896C12.4279 9.4432 11.84 9.46133 11.4812 9.83063L9.19764 12.1791C8.64797 12.0741 7.54291 11.7296 6.40541 10.595C5.26791 9.45656 4.92341 8.34866 4.8213 7.80283L7.16788 5.51832C7.53814 5.15952 7.55532 4.57265 7.20891 4.19094L3.68284 0.312825C3.33644 -0.0698344 2.74765 -0.106096 2.35544 0.229804L0.284645 2.00569C0.119555 2.17173 0.0212633 2.39121 0.00790333 2.625C-0.0064109 2.86357 -0.279335 8.5147 4.10273 12.8986C7.92558 16.7204 12.7142 17 14.033 17C14.2257 17 14.3441 16.9943 14.3756 16.9924C14.6094 16.979 14.8289 16.8807 14.9939 16.7147L16.7689 14.643C17.1067 14.2508 17.0695 13.6629 16.6878 13.3166Z" fill="#1B2232"/>
</svg>
